<svg width="55" height="55" viewBox="0 0 55 55" fill="none" xmlns="http://www.w3.org/2000/svg">
<rect width="55" height="55" rx="27.5" fill="#8CA8F0"/>
<path d="M24.6133 17.776C26.3199 15.884 28.9946 14.6667 31.9999 14.6667C37.1546 14.6667 41.3333 18.248 41.3333 22.6667C41.3333 25.3187 39.8266 27.6693 37.5093 29.1253L37.3333 29.2267V34.6267C37.3333 34.8921 37.254 35.1516 37.1057 35.3717C36.9573 35.5919 36.7466 35.7627 36.5006 35.8624C36.2545 35.9621 35.9843 35.986 35.7246 35.9312C35.4649 35.8764 35.2274 35.7453 35.0426 35.5547L33.5226 33.9893C34.9479 32.304 35.7866 30.2347 35.7866 27.9987C35.7866 22.576 30.8559 18.1387 24.6133 17.776Z" fill="#0A112D"/>
<path d="M25.847 35.848L20.9577 40.888C20.7729 41.0786 20.5354 41.2097 20.2757 41.2645C20.0159 41.3194 19.7457 41.2954 19.4997 41.1957C19.2536 41.096 19.043 40.9252 18.8946 40.705C18.7463 40.4849 18.667 40.2255 18.667 39.96V34.56L18.491 34.4587C16.1723 33.0027 14.667 30.652 14.667 28C14.667 23.5813 18.8457 20 24.0003 20C29.155 20 33.3337 23.5813 33.3337 28C33.3337 31.6347 30.5057 34.704 26.6323 35.6773C26.3728 35.7441 26.1108 35.801 25.847 35.848Z" fill="#0A112D"/>
</svg>
